IKResults
version=1
nRows=10
nColumns=40
inDegrees=yes

Units are S.I. units (second, meters, Newtons, ...)
Angles are in degrees.

endheader
time	pelvis_tilt	pelvis_list	pelvis_rotation	pelvis_tx	pelvis_ty	pelvis_tz	hip_flexion_r	hip_adduction_r	hip_rotation_r	knee_angle_r	knee_angle_r_beta	ankle_angle_r	subtalar_angle_r	mtp_angle_r	hip_flexion_l	hip_adduction_l	hip_rotation_l	knee_angle_l	knee_angle_l_beta	ankle_angle_l	subtalar_angle_l	mtp_angle_l	lumbar_extension	lumbar_bending	lumbar_rotation	arm_flex_r	arm_add_r	arm_rot_r	elbow_flex_r	pro_sup_r	wrist_flex_r	wrist_dev_r	arm_flex_l	arm_add_l	arm_rot_l	elbow_flex_l	pro_sup_l	wrist_flex_l	wrist_dev_l
      0.26000000	      8.89857301	     -3.96641191	      7.69025821	     -0.56947884	      0.90541146	      1.40107513	     20.53172576	      0.26415479	    -23.59776068	    -27.34316384	     -0.47722824	     -0.92379678	     -7.88610038	     -6.26796908	    -27.05440728	      6.87742345	      1.12931381	    -28.76188497	     -0.50198959	      1.21581740	      8.90600674	     -7.28845986	    -18.92935938	      6.91020353	     -8.98958911	    -14.19428678	    -11.74554856	    -10.03048458	     10.41180012	     89.95437384	      0.00000000	      0.00000000	     11.50112752	     12.41118792	      9.52805287	     52.98115239	     89.95437384	      0.00000000	      0.00000000
      0.27000000	      9.22805147	     -4.66560471	      7.45578400	     -0.55306678	      0.90801993	      1.40268857	     19.56856642	      1.44350952	    -22.52050571	    -27.83930166	     -0.48588748	     -1.88645824	     -9.34273428	     -5.65688224	    -26.67298404	      7.44713589	      0.87596799	    -31.28206383	     -0.54597501	     -1.40085128	     10.88833328	     -6.44065811	    -19.04006377	      7.68571140	     -8.45848323	    -13.70913603	    -12.04592094	     -9.22355850	     10.48082027	     89.95437384	      0.00000000	      0.00000000	     10.87041100	     11.86433719	     10.12378975	     52.79305326	     89.95437384	      0.00000000	      0.00000000
      0.28000000	      9.57603688	     -5.05110198	      7.13742276	     -0.53670477	      0.91079404	      1.40425855	     18.52696891	      2.12376299	    -22.21966000	    -28.48509459	     -0.49715869	     -1.48522689	     -9.43611650	     -5.42967452	    -26.09882072	      7.72273691	      0.82167850	    -34.02545365	     -0.59385620	     -4.04474038	     11.76798441	     -5.91092254	    -19.17310510	      8.09713504	     -7.75985787	    -13.29461637	    -12.26422760	     -8.84568024	     10.66468307	     89.95437384	      0.00000000	      0.00000000	     10.43042897	     11.36392006	     10.32941843	     52.14799110	     89.95437384	      0.00000000	      0.00000000
      0.29000000	     10.04963581	     -5.36000016	      6.83514657	     -0.52059576	      0.91383792	      1.40594828	     17.21654830	      2.87707872	    -21.60100798	    -28.87753643	     -0.50400809	     -1.01008686	     -9.36175603	     -5.27073234	    -25.41134431	      7.94976194	      0.79069076	    -37.00032366	     -0.64577747	     -6.48826963	     12.76216980	     -5.43033366	    -19.50389804	      8.42269600	     -7.14243531	    -12.77538253	    -12.45995487	     -8.47703223	     10.95127096	     89.95437384	      0.00000000	      0.00000000	      9.99615928	     10.94539487	     10.56677852	     51.38921549	     89.95437384	      0.00000000	      0.00000000
      0.30000000	     10.29401845	     -6.18332276	      6.43774778	     -0.50471184	      0.91659294	      1.40846722	     15.86066287	      4.61201636	    -20.28719837	    -28.30440596	     -0.49400508	     -0.91054413	    -10.38995396	     -4.48243312	    -24.23963625	      8.69354688	      0.97884125	    -40.12934494	     -0.70038920	     -9.14868118	     14.30880428	     -4.20743087	    -19.56899392	      9.16829835	     -6.31418088	    -12.30853055	    -12.72532333	     -7.41186055	     11.47709366	     89.95437384	      0.00000000	      0.00000000	      9.46482637	     10.46715666	     10.89226600	     50.60423116	     89.95437384	      0.00000000	      0.00000000
      0.31000000	     10.51937515	     -6.52830440	      5.96979548	     -0.48935763	      0.91939535	      1.41082398	     14.54352963	      5.78696296	    -18.79343580	    -28.00695055	     -0.48881350	     -0.40950113	    -11.84433718	     -2.94674616	    -22.94526150	      8.87761886	      0.86311370	    -43.05807898	     -0.75150525	    -12.84027028	     14.65598423	     -1.91689305	    -19.73167896	      9.38670321	     -5.54233894	    -11.71795517	    -12.93270071	     -6.29559900	     11.97504904	     89.95437384	      0.00000000	      0.00000000	      9.04276515	     10.11415407	     11.04957838	     49.58941860	     89.95437384	      0.00000000	      0.00000000
      0.32000000	     10.88470791	     -6.50318344	      5.66961902	     -0.47416128	      0.92243144	      1.41269870	     13.02178425	      6.22246977	    -18.19962906	    -27.88649224	     -0.48671111	      0.46841158	    -11.53325423	     -2.88053297	    -21.70120276	      8.65554349	      0.35681852	    -45.78565791	     -0.79911048	    -15.38734864	     15.29042833	     -1.50252059	    -20.04235770	      9.26807117	     -4.99011599	    -11.00080937	    -12.98087483	     -6.08159853	     12.37400527	     89.95437384	      0.00000000	      0.00000000	      8.69702287	      9.81702754	     11.11249246	     48.42264412	     89.95437384	      0.00000000	      0.00000000
      0.33000000	     10.80655668	     -6.66408755	      5.31753042	     -0.45976874	      0.92477718	      1.41483067	     11.99352907	      6.96123699	    -17.12758245	    -27.56259019	     -0.48105795	      1.07088809	    -12.03314108	     -1.73878563	    -19.76251873	      8.53597756	     -0.15608687	    -48.67579737	     -0.84955293	    -16.20792759	     16.09989523	      0.49466735	    -19.96026910	      9.28153784	     -4.38625415	    -10.33601293	    -13.12929338	     -5.16717994	     13.05523932	     89.95437384	      0.00000000	      0.00000000	      8.33323047	      9.52415852	     11.20580226	     47.24694496	     89.95437384	      0.00000000	      0.00000000
      0.34000000	     11.12050099	     -6.51826921	      5.06350582	     -0.44518692	      0.92774641	      1.41654882	     10.37830059	      7.19839658	    -16.60702546	    -27.20516266	     -0.47481966	      2.04303769	    -11.52456911	     -1.70575154	    -18.51107146	      8.03769305	     -0.88569749	    -50.95485629	     -0.88933001	    -14.52884034	     16.50117596	      0.59910668	    -20.28020714	      9.02384868	     -3.88569049	     -9.52615513	    -13.15839631	     -4.91514958	     13.57874582	     89.95437384	      0.00000000	      0.00000000	      8.03132068	      9.29074104	     11.16350514	     45.91402719	     89.95437384	      0.00000000	      0.00000000
      0.35000000	     11.33750583	     -6.40613037	      4.90334687	     -0.43084017	      0.93052002	      1.41812199	      8.83011799	      7.35358102	    -16.52619615	    -26.74930486	     -0.46686344	      2.82595688	    -10.93277819	     -1.53386497	    -17.06814752	      7.61499340	     -1.58183550	    -53.10865439	     -0.92692088	    -11.24739768	     16.59992737	      0.72143095	    -20.50565057	      8.80856142	     -3.51266911	     -8.84786803	    -13.22021916	     -4.58485446	     14.50421126	     89.95437384	      0.00000000	      0.00000000	      7.65362313	      9.09311791	     11.11861316	     44.58760005	     89.95437384	      0.00000000	      0.00000000
